<svg width="154" height="671" viewBox="0 0 154 671" fill="none" xmlns="http://www.w3.org/2000/svg">
<path d="M88.4765 51.76C92.8163 50.4562 101.967 47.292 103.85 45.0654" stroke="#A7B49E"/>
<path d="M87.3271 52.4984C90.2689 50.1325 96.3535 43.9685 97.1577 38.2397" stroke="#A7B49E"/>
<path d="M85.7544 53.3491C89.0641 52.1771 96.9084 49.9364 101.808 50.3496C106.233 50.3153 114.568 48.5751 112.508 41.8892C112.099 40.5626 109.96 38.0903 104.677 38.8136M85.7544 53.3491L90.4737 50.7951C95.1236 49.2074 101.88 42.1459 104.677 38.8136M85.7544 53.3491C86.5987 52.1183 87.0316 47.6662 82.0085 39.7047C79.2312 37.1447 75.1782 31.5371 81.1848 29.5867C87.1913 27.6363 89.8002 31.7346 90.3539 34.0275M104.677 38.8136C107.704 30.7676 102.079 29.8878 98.8886 30.4536C94.998 27.3584 91.5777 31.5466 90.3539 34.0275M90.3539 34.0275C89.5913 35.5237 88.4208 39.3689 89.8392 42.7803C91.2576 46.1918 88.3913 50.4903 86.7809 52.2132" stroke="#A7B49E"/>
<path d="M57.4551 31.7234C53.6468 29.8775 45.6834 25.5798 44.2969 23.1562" stroke="#A7B49E"/>
<path d="M58.4011 32.5963C56.0572 29.8971 51.4131 23.0731 51.5874 17.3706" stroke="#A7B49E"/>
<path d="M59.7207 33.6349C56.8447 32.0536 49.9423 28.8303 45.3404 28.5879C41.2494 27.9709 33.8124 25.1719 36.7922 18.912C37.3834 17.6699 39.7596 15.5366 44.5347 16.9399M59.7207 33.6349L55.7615 30.5176C51.7115 28.3534 46.5895 20.564 44.5347 16.9399M59.7207 33.6349C59.1364 32.3211 59.4498 27.9147 65.3769 20.7993C68.3585 18.6646 73.0099 13.7209 67.7623 11.0235C62.5146 8.32611 59.442 11.9858 58.5617 14.1528M44.5347 16.9399C43.0232 8.68049 48.3711 8.5626 51.234 9.53608C55.3321 7.02532 57.8267 11.5678 58.5617 14.1528M58.5617 14.1528C59.0277 15.715 59.4946 19.6258 57.6343 22.7714C55.7741 25.9171 57.7381 30.4944 58.9526 32.3898" stroke="#A7B49E"/>
<path d="M57.8716 670C57.8716 670 165.116 460.269 78.7657 241.669C76.8342 236.78 42.8204 162.464 85.6047 53.4247" stroke="#A7B49E"/>
<path d="M94.0675 660.805C94.0675 660.805 122.936 524.326 88.8956 335C72.4401 243.477 71.9699 50.7965 60.216 34.1559" stroke="#A7B49E"/>
<path d="M92.7433 283.314C92.5066 281.59 92.4344 275.533 92.5069 274.665C92.6542 272.901 92.2655 274.745 92.4876 270.065C92.5673 268.385 92.157 266.42 91.8721 265.287C91.089 262.171 90.1486 260.387 91.0259 252.782C91.494 248.723 93.9205 241.807 95.3219 235.996C96.003 233.172 96.2848 228.927 96.2836 228.626C96.2817 228.137 98.1578 233.331 99.1108 240.192C99.9521 246.249 99.9242 253.575 99.3922 259.879C98.669 264.27 93.334 282.57 92.9417 283.678C92.866 283.891 92.7999 283.727 92.7433 283.314ZM92.7433 283.314L93.2561 279.38M93.2561 279.38L94.857 267.098C94.857 267.098 95.2748 264.764 95.4301 261.757C95.6814 256.888 95.7035 250.389 95.5799 250.162C95.4921 250.002 95.5209 255.596 95.0339 261.944C94.4118 270.053 93.2561 279.38 93.2561 279.38Z" stroke="#A7B49E"/>
<path d="M68.3267 96.4282C66.9561 93.8918 61.8499 87.7481 60.526 85.5613C59.1418 82.4463 57.1931 78.8378 54.1356 75.3956C51.2479 72.1444 44.3157 66.7581 43.8454 66.3987C42.8773 65.6587 38.6036 63.1467 37.1929 62.4457C35.7822 61.7446 22.7968 54.3194 27.318 57.5386C31.0166 60.1721 32.129 61.8567 34.9528 66.7695C37.6413 71.4471 37.8719 73.527 41.4263 77.753C44.9808 81.9789 52.4354 85.036 52.4354 85.036C52.4354 85.036 56.6675 87.1391 58.0782 87.8401C59.4889 88.5411 68.3267 96.4282 68.3267 96.4282ZM68.3267 96.4282L53.3062 80.4204C53.3062 80.4204 41.9648 69.8656 42.4489 70.2356C42.933 70.6056 52.7806 79.6414 52.7806 79.6414L68.3267 96.4282Z" stroke="#A7B49E"/>
<path d="M90.1906 347.69C88.4755 347.004 82.8366 343.987 82.0703 343.488C80.5132 342.474 82.0212 343.722 77.8056 341.168C76.2921 340.251 74.2661 339.582 73.0732 339.236C69.7941 338.282 67.6661 338.131 61.0769 333.566C57.5609 331.13 52.3953 325.671 47.7319 321.596C45.4657 319.616 41.6824 317.234 41.4034 317.082C40.9504 316.836 46.7067 317.967 53.537 320.686C59.5667 323.086 66.3289 326.828 71.8892 330.456C75.5834 333.265 89.8018 346.838 90.6273 347.715C90.7866 347.884 90.6009 347.854 90.1906 347.69ZM90.1906 347.69L86.812 345.281M86.812 345.281L76.2645 337.76C76.2645 337.76 74.3173 336.24 71.6145 334.588C67.239 331.915 61.2385 328.597 60.9664 328.582C60.7731 328.57 65.962 331.388 71.587 335.002C78.7717 339.618 86.812 345.281 86.812 345.281Z" stroke="#A7B49E"/>
<path d="M73.5668 151.963C74.4234 150.419 78.0572 145.396 78.6463 144.719C79.8433 143.345 78.3992 144.657 81.4354 140.923C82.5254 139.582 83.386 137.748 83.8425 136.664C85.0975 133.686 85.4116 131.72 90.7711 125.924C93.631 122.832 99.8457 118.423 104.542 114.381C106.825 112.417 109.645 109.072 109.828 108.824C110.124 108.421 108.502 113.688 105.102 119.839C102.101 125.27 97.611 131.285 93.3296 136.191C90.0569 139.423 74.5071 151.663 73.5087 152.367C73.3159 152.503 73.3619 152.333 73.5668 151.963ZM73.5668 151.963L76.3878 148.997M76.3878 148.997L85.1946 139.735C85.1946 139.735 86.962 138.034 88.9235 135.641C92.0989 131.767 96.0803 126.429 96.1165 126.178C96.1423 125.999 92.7549 130.618 88.4829 135.586C83.0263 141.931 76.3878 148.997 76.3878 148.997Z" stroke="#A7B49E"/>
<path d="M92.2146 569.86C90.7607 568.77 86.2008 564.452 85.6069 563.779C84.3999 562.412 85.492 563.992 82.1692 560.476C80.9763 559.214 79.2179 558.062 78.1691 557.43C75.2861 555.69 73.2802 555.011 68.2521 548.963C65.5691 545.736 62.17 539.185 58.8552 534.092C57.2443 531.617 54.288 528.375 54.0632 528.159C53.6981 527.808 58.9155 530.34 64.7091 534.67C69.8235 538.492 75.256 543.79 79.5641 548.676C82.3108 552.308 92.0862 568.942 92.628 569.994C92.7326 570.197 92.5625 570.121 92.2146 569.86ZM92.2146 569.86L89.6562 566.694M89.6562 566.694L81.6689 556.808C81.6689 556.808 80.2325 554.856 78.1061 552.588C74.6638 548.917 69.8424 544.219 69.5848 544.135C69.4019 544.076 73.5862 548.089 77.9603 552.979C83.5473 559.225 89.6562 566.694 89.6562 566.694Z" stroke="#A7B49E"/>
<path d="M113.208 415.715C114.243 414.268 117.197 408.872 117.547 408.065C118.256 406.423 117.725 408.236 119.759 403.952C120.489 402.414 121.794 400.823 122.59 399.926C124.778 397.459 126.472 396.25 129.315 389.074C130.832 385.245 131.958 378.044 133.475 372.259C134.212 369.447 135.985 365.528 136.13 365.258C136.365 364.821 132.206 368.697 128.079 374.449C124.435 379.527 120.965 386.102 118.434 391.969C116.987 396.201 113.034 414.803 112.857 415.958C112.823 416.181 112.96 416.061 113.208 415.715ZM113.208 415.715L114.626 411.978M114.626 411.978L119.052 400.313C119.052 400.313 119.791 398.049 121.087 395.291C123.185 390.826 126.266 384.994 126.485 384.842C126.64 384.735 123.945 389.734 121.352 395.623C118.041 403.145 114.626 411.978 114.626 411.978Z" stroke="#A7B49E"/>
<path d="M99.9692 623.131C101.552 622.21 106.632 618.428 107.308 617.826C108.681 616.603 107.395 618.051 111.144 614.929C112.489 613.808 114.383 612.86 115.505 612.348C118.59 610.94 120.668 610.489 126.434 605.042C129.511 602.136 133.724 596.008 137.667 591.32C139.583 589.041 142.933 586.151 143.184 585.961C143.591 585.653 138.087 587.588 131.781 591.244C126.214 594.471 120.142 599.129 115.24 603.502C112.048 606.803 100.214 622.233 99.5417 623.218C99.4118 623.408 99.5904 623.351 99.9692 623.131ZM99.9692 623.131L102.914 620.271M102.914 620.271L112.11 611.342C112.11 611.342 113.785 609.563 116.187 607.548C120.074 604.285 125.462 600.155 125.729 600.101C125.918 600.062 121.25 603.582 116.281 607.952C109.935 613.534 102.914 620.271 102.914 620.271Z" stroke="#A7B49E"/>
<path d="M103.836 469.275C103.428 467.573 101.26 461.827 100.869 461.028C100.074 459.406 101.132 461.03 99.1877 456.675C98.4898 455.111 98.161 453.129 98.0182 451.97C97.6254 448.787 97.8766 446.813 94.2172 439.893C92.2645 436.2 87.3594 430.405 83.8555 425.341C82.1527 422.881 80.3114 418.955 80.2014 418.67C80.0227 418.208 80.125 423.69 81.7374 430.466C83.1608 436.448 85.8948 443.363 88.7388 449.158C91.0614 453.087 102.988 468.752 103.778 469.679C103.93 469.858 103.933 469.683 103.836 469.275ZM103.836 469.275L101.885 465.714M101.885 465.714L95.7975 454.595C95.7975 454.595 94.5303 452.517 93.2689 449.722C91.2268 445.197 88.8039 439.061 88.84 438.81C88.8657 438.631 90.9046 443.927 93.7219 449.778C97.3203 457.252 101.885 465.714 101.885 465.714Z" stroke="#A7B49E"/>
</svg>
