<svg width="283" height="360" viewBox="0 0 283 360" fill="none" xmlns="http://www.w3.org/2000/svg">
<path d="M201.202 126.265C204.197 121.965 211.003 113.049 214.262 111.781" stroke="#A7B49E"/>
<path d="M201.078 127.393C203.109 127.705 208.511 129.078 213.873 132.077C219.235 135.075 222.27 135.717 223.118 135.663" stroke="#A7B49E"/>
<path d="M199.945 127.262C203.724 124.881 213.04 120.416 220.07 121.596" stroke="#A7B49E"/>
<path d="M198.412 128.684C200.906 125.469 206.183 117.656 207.341 112.122C208.867 107.271 213.718 98.7373 220.916 103.412C222.344 104.339 224.543 107.58 221.916 113.126M198.412 128.684L203.01 124.418C206.445 119.88 217.045 114.999 221.916 113.126M198.412 128.684C200.148 128.2 205.547 129.329 213.255 137.719C215.343 141.694 220.6 148.17 224.918 142.271C229.235 136.373 225.275 132.028 222.755 130.593M221.916 113.126C232.426 112.7 231.577 119.198 229.838 122.501C232.184 127.893 226.094 130.142 222.755 130.593M222.755 130.593C220.734 130.892 215.804 130.793 212.254 128.004C208.705 125.216 202.671 126.817 200.097 127.966" stroke="#A7B49E"/>
<path d="M200.373 127.54C202.128 128.277 206.415 130.618 209.523 134.086" stroke="#A7B49E"/>
<path d="M115.287 200.406C115.287 200.406 115.325 193.783 156.677 153.555C161.869 148.504 176.257 136.536 198.412 128.684" stroke="#A7B49E"/>
<path d="M121.569 168.225C120.509 166.731 119.093 163.595 119.341 161.338C119.526 159.646 118.991 154.061 118.34 151.624C119.901 152.033 123.163 154.514 123.72 161.161" stroke="#A7B49E"/>
<path d="M120.464 169.925C120.655 169.672 121.289 169.679 121.508 169.394M121.508 169.394C124.673 165.27 130.534 158.178 132.849 157.42C129.806 158.667 123.204 162.518 121.14 167.946L121.508 169.394ZM127.67 160.705L121.845 167.8L124.329 163.974" stroke="#A7B49E"/>
<path d="M128.651 160.133L121.292 168.65L124.605 163.549" stroke="#A7B49E"/>
<path d="M211.724 49.0944C214.063 47.9943 219.279 45.9024 221.434 46.3351C224.129 46.8761 233.963 42.9885 235.771 41.1414M99.1071 241.269C104.342 232.581 115.376 209.65 117.629 187.423C119.881 165.195 131.08 140.76 136.398 131.32M136.398 131.32C136.147 127.33 135.125 118.648 133.045 115.848C130.966 113.047 131.125 107.55 131.464 105.151C131.731 104.115 132.894 102.574 135.415 104.695C137.846 103.453 142.957 102.461 143.955 108.428C141.746 111.829 137.143 121.168 136.398 131.32ZM136.398 131.32C137.316 131.02 138.589 130.684 140.025 130.425M140.025 130.425C143.428 129.809 147.741 129.621 150.393 131.343C153.861 133.193 161.217 134.747 162.892 126.165C164.567 117.583 159.064 116.427 156.103 116.922C154.907 118.764 152.123 122.676 150.554 123.591C148.593 124.735 145.613 128.385 140.025 130.425Z" stroke="#A7B49E"/>
<path d="M154.571 118.343C156.228 115.793 158.567 109.939 154.675 106.928C150.783 103.917 145.907 106.673 143.956 108.428" stroke="#A7B49E"/>
<path d="M136.674 130.895C140.037 126.029 147.162 116.433 148.754 116.984" stroke="#A7B49E"/>
<path d="M136.522 130.192C137.384 125.111 138.621 114.391 136.663 112.153" stroke="#A7B49E"/>
<path d="M137.227 130.045C143.281 128.538 155.562 125.635 156.248 126.08" stroke="#A7B49E"/>
<path d="M136.798 129.766C137.557 127.035 138.957 121.377 138.492 120.592" stroke="#A7B49E"/>
<path d="M143.015 129.574C143.996 129.002 146.098 127.828 146.661 127.711" stroke="#A7B49E"/>
<path d="M212 48.669C213.054 46.7342 215.945 42.4072 219.083 40.577C223.005 38.2893 228.526 29.7877 228.097 29.5095" stroke="#A7B49E"/>
<path d="M210.316 49.3879C210.363 49.2325 210.408 49.0596 210.449 48.8704M210.449 48.8704C211.036 46.1924 210.897 40.2353 206.259 34.062C201.292 27.4525 202.995 21.2659 204.468 18.9988C205.581 17.9091 208.672 16.6524 212.122 20.3435C213.623 19.9082 216.899 20.3033 217.996 25.3671C216.75 33.0188 213.496 48.4317 210.449 48.8704ZM209.916 50.9414C212.521 48.8056 219.893 45.3333 228.537 48.5298C232.047 50.0034 239.461 51.0307 241.037 43.3515C241.119 42.5993 241.027 40.9278 239.999 40.26C238.971 39.5923 238.694 38.2042 238.685 37.5936C237.238 35.4451 233.288 32.3969 229.069 37.3928C223.656 40.7265 212.412 47.8483 210.744 49.6661" stroke="#A7B49E"/>
<path d="M231.858 34.9736C233.616 32.892 236.814 28.2805 235.542 26.4875C235.656 24.7485 234.953 21.3913 231.229 21.8736C229.404 19.6812 224.644 16.6305 220.205 21.9664C219.468 23.1 217.916 25.6777 217.596 26.9205" stroke="#A7B49E"/>
<path d="M211.725 49.0942C210.608 43.9366 209.397 32.2318 213.494 26.6733" stroke="#A7B49E"/>
<path d="M6.89129 310.108C30.7575 299.62 90.8306 261.517 140.193 193.01C157.498 169.8 195.806 108.498 210.592 48.9624" stroke="#A7B49E"/>
<path d="M183.844 119.228C184.338 117.141 185.205 109.718 185.235 108.644C185.295 106.461 185.5 108.77 185.853 103.002C185.98 100.931 186.704 98.5692 187.176 97.213C188.475 93.4853 189.781 91.4093 189.764 81.9719C189.755 76.936 187.878 68.1565 187.03 60.8574C186.618 57.3104 186.846 52.0679 186.886 51.6988C186.952 51.0994 184.135 57.2451 182.156 65.5488C180.41 72.8791 179.492 81.8715 179.283 89.6698C179.54 95.1447 183.265 118.243 183.57 119.649C183.629 119.921 183.725 119.727 183.844 119.228ZM183.844 119.228L183.768 114.339M183.768 114.339L183.53 99.0757C183.53 99.0757 183.355 96.1608 183.567 92.4522C183.911 86.4485 184.728 78.4711 184.899 78.2083C185.02 78.0216 184.262 84.882 183.996 92.7305C183.656 102.755 183.768 114.339 183.768 114.339Z" stroke="#A7B49E"/>
<path d="M140.192 193.011C143.038 190.967 151.75 186.967 154.348 185.281C157.538 182.612 161.585 179.704 166.667 177.568C171.466 175.55 181.605 173.351 182.289 173.209C183.698 172.915 189.486 172.444 191.324 172.428C193.161 172.413 210.63 171.207 204.185 172.32C198.913 173.23 196.817 174.48 191.134 178.348C185.722 182.032 184.298 184.183 178.263 186.912C172.227 189.64 162.888 189.014 162.888 189.014C162.888 189.014 157.376 189.061 155.538 189.076C153.701 189.092 140.192 193.011 140.192 193.011ZM140.192 193.011L164.639 183.504C164.639 183.504 182.223 178.001 181.518 178.148C180.814 178.294 165.62 182.932 165.62 182.932L140.192 193.011Z" stroke="#A7B49E"/>
</svg>
