<svg width="152" height="671" viewBox="0 0 152 671" fill="none" xmlns="http://www.w3.org/2000/svg">
<path d="M64.9283 51.76C60.6279 50.4562 51.5607 47.292 49.6943 45.0654" stroke="#A7B49E"/>
<path d="M66.067 52.4984C63.1519 50.1325 57.1226 43.9685 56.3257 38.2397" stroke="#A7B49E"/>
<path d="M67.6254 53.3491C64.3458 52.1771 56.5727 49.9364 51.7178 50.3496C47.3329 50.3153 39.0736 48.5751 41.1153 41.8892C41.5204 40.5626 43.6394 38.0903 48.8749 38.8136M67.6254 53.3491L62.949 50.7951C58.3413 49.2074 51.6464 42.1459 48.8749 38.8136M67.6254 53.3491C66.7887 52.1183 66.3598 47.6662 71.3373 39.7047C74.0894 37.1447 78.1055 31.5371 72.1535 29.5867C66.2016 27.6363 63.6163 31.7346 63.0677 34.0275M48.8749 38.8136C45.8756 30.7676 51.449 29.8878 54.6106 30.4536C58.4658 27.3584 61.855 31.5466 63.0677 34.0275M63.0677 34.0275C63.8233 35.5237 64.9832 39.3689 63.5777 42.7803C62.1722 46.1918 65.0124 50.4903 66.6082 52.2132" stroke="#A7B49E"/>
<path d="M95.6673 31.7234C99.4411 29.8775 107.332 25.5798 108.706 23.1562" stroke="#A7B49E"/>
<path d="M94.7302 32.5963C97.0527 29.8971 101.655 23.0731 101.482 17.3706" stroke="#A7B49E"/>
<path d="M93.4229 33.6349C96.2728 32.0536 103.112 28.8303 107.673 28.5879C111.726 27.9709 119.096 25.1719 116.143 18.912C115.557 17.6699 113.203 15.5366 108.471 16.9399M93.4229 33.6349L97.3461 30.5176C101.359 28.3534 106.435 20.564 108.471 16.9399M93.4229 33.6349C94.0018 32.3211 93.6913 27.9147 87.8181 20.7993C84.8635 18.6646 80.2544 13.7209 85.4544 11.0235C90.6544 8.32611 93.699 11.9858 94.5713 14.1528M108.471 16.9399C109.969 8.68049 104.669 8.5626 101.832 9.53608C97.7716 7.02532 95.2997 11.5678 94.5713 14.1528M94.5713 14.1528C94.1096 15.715 93.647 19.6258 95.4903 22.7714C97.3336 25.9171 95.3875 30.4944 94.184 32.3898" stroke="#A7B49E"/>
<path d="M95.2551 670C95.2551 670 -11.0151 460.269 74.5509 241.669C76.4647 236.78 110.17 162.464 67.774 53.4247" stroke="#A7B49E"/>
<path d="M59.3879 660.805C59.3879 660.805 30.782 524.326 64.5128 335C80.8188 243.477 81.2847 50.7965 92.9319 34.1559" stroke="#A7B49E"/>
<path d="M60.7002 283.314C60.9347 281.59 61.0063 275.533 60.9344 274.665C60.7884 272.901 61.1736 274.745 60.9535 270.065C60.8745 268.385 61.2812 266.42 61.5635 265.287C62.3395 262.171 63.2713 260.387 62.402 252.782C61.9381 248.723 59.5337 241.807 58.145 235.996C57.4701 233.172 57.1908 228.927 57.192 228.626C57.1939 228.137 55.3349 233.331 54.3905 240.192C53.5569 246.249 53.5846 253.575 54.1117 259.879C54.8284 264.27 60.1148 282.57 60.5036 283.678C60.5786 283.891 60.6441 283.727 60.7002 283.314ZM60.7002 283.314L60.192 279.38M60.192 279.38L58.6057 267.098C58.6057 267.098 58.1916 264.764 58.0378 261.757C57.7888 256.888 57.7668 250.389 57.8894 250.162C57.9764 250.002 57.9478 255.596 58.4304 261.944C59.0468 270.053 60.192 279.38 60.192 279.38Z" stroke="#A7B49E"/>
<path d="M84.8954 96.4282C86.2535 93.8918 91.3133 87.7481 92.6252 85.5613C93.9968 82.4463 95.9278 78.8378 98.9575 75.3956C101.819 72.1444 108.688 66.7581 109.154 66.3987C110.114 65.6587 114.348 63.1467 115.746 62.4457C117.144 61.7446 130.012 54.3194 125.531 57.5386C121.867 60.1721 120.764 61.8567 117.966 66.7695C115.302 71.4471 115.073 73.527 111.551 77.753C108.029 81.9789 100.642 85.036 100.642 85.036C100.642 85.036 96.4486 87.1391 95.0507 87.8401C93.6528 88.5411 84.8954 96.4282 84.8954 96.4282ZM84.8954 96.4282L99.7794 80.4204C99.7794 80.4204 111.018 69.8656 110.538 70.2356C110.058 70.6056 100.3 79.6414 100.3 79.6414L84.8954 96.4282Z" stroke="#A7B49E"/>
<path d="M63.2301 347.69C64.9296 347.004 70.5173 343.987 71.2766 343.488C72.8195 342.474 71.3253 343.722 75.5026 341.168C77.0023 340.251 79.0099 339.582 80.192 339.236C83.4413 338.282 85.55 338.131 92.0793 333.566C95.5633 331.13 100.682 325.671 105.303 321.596C107.549 319.616 111.298 317.234 111.574 317.082C112.023 316.836 106.319 317.967 99.5507 320.686C93.5758 323.086 86.875 326.828 81.3652 330.456C77.7046 333.265 63.6154 346.838 62.7974 347.715C62.6395 347.884 62.8235 347.854 63.2301 347.69ZM63.2301 347.69L66.578 345.281M66.578 345.281L77.0297 337.76C77.0297 337.76 78.9592 336.24 81.6374 334.588C85.9732 331.915 91.9192 328.597 92.1888 328.582C92.3804 328.57 87.2385 331.388 81.6647 335.002C74.5453 339.618 66.578 345.281 66.578 345.281Z" stroke="#A7B49E"/>
<path d="M79.7021 151.963C78.8533 150.419 75.2525 145.396 74.6688 144.719C73.4826 143.345 74.9136 144.657 71.905 140.923C70.8249 139.582 69.9722 137.748 69.5197 136.664C68.2762 133.686 67.9649 131.72 62.6541 125.924C59.8202 122.832 53.6619 118.423 49.0079 114.381C46.7462 112.417 43.9514 109.072 43.7705 108.824C43.4768 108.421 45.0847 113.688 48.4532 119.839C51.4269 125.27 55.8763 131.285 60.1188 136.191C63.3618 139.423 78.7704 151.663 79.7597 152.367C79.9507 152.503 79.9052 152.333 79.7021 151.963ZM79.7021 151.963L76.9068 148.997M76.9068 148.997L68.18 139.735C68.18 139.735 66.4286 138.034 64.485 135.641C61.3384 131.767 57.3932 126.429 57.3573 126.178C57.3318 125.999 60.6883 130.618 64.9216 135.586C70.3285 141.931 76.9068 148.997 76.9068 148.997Z" stroke="#A7B49E"/>
<path d="M61.2237 569.86C62.6645 568.77 67.1829 564.452 67.7715 563.779C68.9674 562.412 67.8853 563.992 71.1779 560.476C72.36 559.214 74.1024 558.062 75.1417 557.43C77.9985 555.69 79.9861 555.011 84.9685 548.963C87.6272 545.736 90.9954 539.185 94.2801 534.092C95.8764 531.617 98.8058 528.375 99.0286 528.159C99.3904 527.808 94.2203 530.34 88.4794 534.67C83.4114 538.492 78.0283 543.79 73.7594 548.676C71.0375 552.308 61.351 568.942 60.8142 569.994C60.7105 570.197 60.879 570.121 61.2237 569.86ZM61.2237 569.86L63.7589 566.694M63.7589 566.694L71.6737 556.808C71.6737 556.808 73.097 554.856 75.2041 552.588C78.6151 548.917 83.3927 544.219 83.6479 544.135C83.8292 544.076 79.6829 548.089 75.3485 552.979C69.8124 559.225 63.7589 566.694 63.7589 566.694Z" stroke="#A7B49E"/>
<path d="M40.4214 415.715C39.396 414.268 36.4683 408.872 36.1222 408.065C35.4188 406.423 35.9455 408.236 33.9301 403.952C33.2066 402.414 31.9133 400.823 31.1245 399.926C28.9565 397.459 27.278 396.25 24.4611 389.074C22.9579 385.245 21.8417 378.044 20.3384 372.259C19.6078 369.447 17.851 365.528 17.7077 365.258C17.4749 364.821 21.5958 368.697 25.6857 374.449C29.2963 379.527 32.7352 386.102 35.2432 391.969C36.6772 396.201 40.5937 414.803 40.7692 415.958C40.8031 416.181 40.6667 416.061 40.4214 415.715ZM40.4214 415.715L39.0166 411.978M39.0166 411.978L34.6308 400.313C34.6308 400.313 33.898 398.049 32.6139 395.291C30.5352 390.826 27.482 384.994 27.2652 384.842C27.1112 384.735 29.7817 389.734 32.351 395.623C35.6327 403.145 39.0166 411.978 39.0166 411.978Z" stroke="#A7B49E"/>
<path d="M53.5401 623.131C51.9715 622.21 46.9377 618.428 46.2681 617.826C44.9074 616.603 46.1821 618.051 42.4672 614.929C41.1336 613.808 39.2576 612.86 38.1455 612.348C35.0885 610.94 33.029 610.489 27.3154 605.042C24.2666 602.136 20.0918 596.008 16.1849 591.32C14.2862 589.041 10.9668 586.151 10.7182 585.961C10.3145 585.653 15.7686 587.588 22.0175 591.244C27.5339 594.471 33.5504 599.129 38.4083 603.502C41.5711 606.803 53.2974 622.233 53.9637 623.218C54.0923 623.408 53.9154 623.351 53.5401 623.131ZM53.5401 623.131L50.6215 620.271M50.6215 620.271L41.51 611.342C41.51 611.342 39.8493 609.563 37.4698 607.548C33.6177 604.285 28.2785 600.155 28.0145 600.101C27.827 600.062 32.4525 603.582 37.376 607.952C43.6645 613.534 50.6215 620.271 50.6215 620.271Z" stroke="#A7B49E"/>
<path d="M49.7087 469.275C50.1129 467.573 52.2612 461.827 52.6486 461.028C53.4359 459.406 52.3879 461.03 54.3143 456.675C55.0059 455.111 55.3317 453.129 55.4733 451.97C55.8625 448.787 55.6135 446.813 59.2397 439.893C61.1747 436.2 66.0352 430.405 69.5073 425.341C71.1946 422.881 73.0192 418.955 73.1282 418.67C73.3053 418.208 73.2039 423.69 71.6061 430.466C70.1956 436.448 67.4865 443.363 64.6684 449.158C62.3668 453.087 50.5481 468.752 49.7661 469.679C49.6151 469.858 49.612 469.683 49.7087 469.275ZM49.7087 469.275L51.6411 465.714M51.6411 465.714L57.6738 454.595C57.6738 454.595 58.9294 452.517 60.1794 449.722C62.2029 445.197 64.6038 439.061 64.568 438.81C64.5426 438.631 62.5222 443.927 59.7305 449.778C56.1648 457.252 51.6411 465.714 51.6411 465.714Z" stroke="#A7B49E"/>
</svg>
