<svg width="654" height="327" viewBox="0 0 654 327" fill="none" xmlns="http://www.w3.org/2000/svg">
<path d="M31.3293 71.8891C30.7499 67.0745 29.0629 56.8322 26.9502 54.3804" stroke="#A7B49E"/>
<path d="M30.9409 72.8649C29.1459 72.2372 24.135 71.012 18.4509 71.1326C12.7668 71.2532 10.0082 70.4587 9.33936 70.0464" stroke="#A7B49E"/>
<path d="M31.9233 73.2501C29.8695 69.6631 24.1975 61.9667 17.9404 59.8774" stroke="#A7B49E"/>
<path d="M32.5574 75.0775C31.9164 71.3668 30.999 62.6895 32.4577 57.6652C33.3183 53.0384 33.0617 43.958 25.1497 44.6502C23.5799 44.7876 20.3745 46.4805 20.1115 52.1536M32.5574 75.0775L30.6539 69.5939C29.8193 64.3936 23.2779 55.8002 20.1115 52.1536M32.5574 75.0775C31.3495 73.9276 26.4477 72.5045 16.5042 76.0111C13.0707 78.3518 5.96241 81.3593 4.99697 74.6637C4.03154 67.9681 9.15486 66.1387 11.8372 66.061M20.1115 52.1536C11.709 47.2387 9.58007 52.918 9.56592 56.3721C5.30644 59.7581 9.30532 64.2422 11.8372 66.061M11.8372 66.061C13.3591 67.1834 17.4307 69.2441 21.5423 68.5077C25.654 67.7714 29.8892 71.7012 31.4928 73.7581" stroke="#A7B49E"/>
<path d="M31.452 73.2911C29.6979 73.1307 25.1782 73.1808 21.132 74.6648" stroke="#A7B49E"/>
<path d="M72.0059 166.535C72.0059 166.535 75.2111 161.236 57.8102 112.11C55.6255 105.942 48.5792 90.4677 32.5576 75.0779" stroke="#A7B49E"/>
<path d="M65.5054 226.689C68.1891 217.694 77.0086 195.859 90.8171 180.471C104.626 165.083 114.372 142.197 117.519 132.677M117.519 132.677C120.406 130.363 138.975 129.994 136.353 116.764C135.861 114.286 131.68 110.461 126.975 113.494C126.023 117.124 124.003 125.843 117.519 132.677ZM117.519 132.677C117.153 131.862 116.692 132.639 115.975 131.494M115.975 131.494C114.276 128.782 106.305 122.236 103.475 121.494C100.048 120.273 98.9073 112.654 103.475 108.494C109.458 103.046 113.592 107.888 115.097 110.222C114.582 112.188 113.639 116.531 113.99 118.175C114.429 120.23 113.89 126.399 115.975 131.494Z" stroke="#A7B49E"/>
<path d="M113.969 116.993C115.005 106.502 119.203 104.196 123.204 106.942C127.527 109.908 125.839 114.179 125.975 116.994" stroke="#A7B49E"/>
<path d="M117.302 132.316C116.685 127.134 115.057 116.715 113.475 116.494" stroke="#A7B49E"/>
<path d="M117.702 132.295C119.638 127.787 122.802 118.516 125.975 117.494" stroke="#A7B49E"/>
<path d="M80.3398 41.7668C81.5516 40.1274 84.0526 36.0118 84.3625 32.6645C84.75 28.4805 89.7262 20.5282 90.1269 20.779" stroke="#A7B49E"/>
<path d="M80.394 43.4611C80.5059 43.3607 80.6333 43.2554 80.7759 43.1468M80.7759 43.1468C82.7936 41.6091 87.8455 39.3985 94.8363 40.8789C102.321 42.464 106.846 38.6191 108.173 36.4984C108.653 35.1384 108.5 32.0551 104.056 30.6019C103.835 29.1726 102.223 26.5783 97.5466 27.6356C91.6139 31.6695 79.954 40.4192 80.7759 43.1468ZM79.2468 44.4032C80.0211 41.3834 80.0551 33.8428 73.9971 27.8388C71.39 25.4696 67.6325 19.651 73.4596 15.3296C74.0585 14.9667 75.4968 14.3912 76.4586 14.9931C77.4204 15.5949 78.6929 15.2845 79.2088 15.0541C81.5767 15.4291 85.6764 17.5519 83.1328 23.0426C82.4503 28.8863 80.8669 41.1011 79.9932 43.2103" stroke="#A7B49E"/>
<path d="M84.0727 19.7574C85.1325 17.4696 87.7525 12.9857 89.7536 13.3526C91.1679 12.5777 94.259 11.8561 95.309 15.169C97.861 15.8438 102.279 18.6455 99.5368 24.4543C98.8733 25.5146 97.3169 27.8237 96.3992 28.5773" stroke="#A7B49E"/>
<path d="M80.0909 42.1643C84.8543 41.0874 95.1471 37.5317 98.2103 31.9234" stroke="#A7B49E"/>
<path d="M36.2686 318.556C21.3242 299.617 82.0455 237.917 71.4755 160.494C67.4185 134.012 103.477 107.496 79.4766 44.4956" stroke="#A7B49E"/>
<path d="M66.4475 138.385C64.5808 137.71 58.3926 134.622 57.5458 134.101C55.825 133.042 57.5093 134.371 52.8631 131.722C51.1951 130.771 48.9994 130.135 47.7098 129.814C44.1649 128.932 41.8955 128.892 34.5951 124.098C30.6995 121.54 24.8506 115.64 19.6274 111.285C17.0892 109.169 12.9135 106.69 12.6072 106.534C12.1098 106.282 18.2965 107.213 25.7296 109.887C32.2915 112.247 39.7206 116.092 45.8661 119.88C49.9759 122.853 65.9778 137.438 66.9128 138.387C67.0933 138.57 66.8941 138.546 66.4475 138.385ZM66.4475 138.385L62.6997 135.85M62.6997 135.85L50.9993 127.934C50.9993 127.934 48.8304 126.322 45.8506 124.608C41.0267 121.833 34.4346 118.425 34.1446 118.424C33.9387 118.423 39.6358 121.311 45.8491 125.081C53.7852 129.895 62.6997 135.85 62.6997 135.85Z" stroke="#A7B49E"/>
<path d="M67.4751 220.89C70.6669 220.321 78.9411 217.121 81.7361 216.486C85.5651 216.091 90.1057 215.283 94.8013 213.29C99.2362 211.408 107.236 206.1 107.773 205.738C108.877 204.993 112.924 201.457 114.12 200.249C115.315 199.04 127.386 188.228 122.49 191.786C118.484 194.696 116.303 195.28 110.069 196.555C104.134 197.768 101.788 197.325 96.0843 199.568C90.3801 201.812 84.7696 208.412 84.7696 208.412C84.7696 208.412 81.1824 212.039 79.9866 213.248C78.7909 214.457 67.4751 220.89 67.4751 220.89ZM67.4751 220.89L89.5553 210.805C89.5553 210.805 104.551 202.691 103.999 203.063C103.447 203.436 90.5674 210.524 90.5674 210.524L67.4751 220.89Z" stroke="#A7B49E"/>
<path d="M600.561 33.593C605.176 32.1044 614.908 28.4915 616.911 25.9492" stroke="#A7B49E"/>
<path d="M599.339 34.4361C602.467 31.7348 608.938 24.6968 609.793 18.1558" stroke="#A7B49E"/>
<path d="M597.666 35.4076C601.186 34.0694 609.528 31.511 614.739 31.9828C619.444 31.9436 628.309 29.9567 626.117 22.3227C625.683 20.8081 623.408 17.9852 617.79 18.811M597.666 35.4076L602.685 32.4914C607.63 30.6786 614.815 22.6158 617.79 18.811M597.666 35.4076C598.564 34.0022 599.024 28.9189 593.682 19.8285C590.729 16.9055 586.419 10.5028 592.806 8.27585C599.194 6.04889 601.969 10.7283 602.557 13.3464M617.79 18.811C621.009 9.62417 615.027 8.61961 611.634 9.26569C607.496 5.73164 603.859 10.5136 602.557 13.3464M602.557 13.3464C601.747 15.0547 600.502 19.445 602.01 23.3402C603.519 27.2354 600.47 32.1434 598.758 34.1105" stroke="#A7B49E"/>
<path d="M560.476 323.995C560.476 323.995 587.925 311.495 573.73 260.3C571.981 253.994 490.976 162.995 597.976 34.9954" stroke="#A7B49E"/>
<path d="M565.477 245.996C568.16 237.001 564.489 194.877 578.297 179.489C592.106 164.101 601.852 141.215 605 131.695M605 131.695C607.887 129.381 626.455 129.012 623.833 115.782C623.342 113.304 619.16 109.479 614.455 112.512C613.504 116.142 611.483 124.861 605 131.695ZM605 131.695C604.633 130.88 604.172 131.656 603.455 130.512M603.455 130.512C601.757 127.8 593.785 121.254 590.955 120.512C587.529 119.291 586.388 111.672 590.955 107.512C596.938 102.064 601.072 106.906 602.578 109.24C602.062 111.206 601.119 115.549 601.47 117.193C601.909 119.248 601.37 125.417 603.455 130.512Z" stroke="#A7B49E"/>
<path d="M601.481 116.009C602.517 105.517 606.715 103.212 610.717 105.958C615.039 108.923 613.351 113.195 613.487 116.01" stroke="#A7B49E"/>
<path d="M604.782 131.334C604.166 126.152 602.538 115.733 600.956 115.512" stroke="#A7B49E"/>
<path d="M605.213 131.311C607.149 126.803 610.314 117.531 613.487 116.51" stroke="#A7B49E"/>
<path d="M565.756 41.4485C565.2 39.4872 563.472 34.9919 561.013 32.7001C557.939 29.8355 554.688 21.0357 555.132 20.8719" stroke="#A7B49E"/>
<path d="M566.977 43.6812C566.966 43.5313 567.114 42.1265 567.115 41.9473M567.115 41.9473C567.132 39.4105 568.471 34.0612 573.917 29.4343C579.747 24.4805 579.471 18.5488 578.604 16.2022C577.821 14.9914 575.288 13.227 571.421 15.8556C570.155 15.1566 567.117 14.8454 565.094 19.1927C564.659 26.3538 564.454 40.9301 567.115 41.9473ZM567.174 43.9255C565.258 41.4665 559.312 36.8293 550.857 37.9524C547.388 38.567 540.486 37.983 540.629 30.7298C540.708 30.0339 541.132 28.5439 542.197 28.1508C543.261 27.7576 543.793 26.5609 543.926 26.0117C545.671 24.3673 549.857 22.4209 552.647 27.7907C556.854 31.9036 565.552 40.6246 566.687 42.6055" stroke="#A7B49E"/>
<path d="M550.622 25.0382C549.46 22.8008 547.513 17.9862 549.027 16.627C549.278 15.034 550.597 12.1467 553.861 13.3414C555.955 11.7344 560.873 9.95092 563.793 15.6727C564.227 16.846 565.102 19.4893 565.138 20.6763" stroke="#A7B49E"/>
<path d="M565.919 41.8886C567.979 37.4607 571.458 27.1418 568.893 21.289" stroke="#A7B49E"/>
<path d="M588.976 319.499C574.032 300.561 536.476 304.495 536.476 191.495C532.419 165.013 590.956 106.514 566.956 43.5136" stroke="#A7B49E"/>
<path d="M576.803 181.191C578.152 179.734 583.405 175.237 584.215 174.66C585.86 173.487 583.981 174.521 588.229 171.272C589.755 170.106 591.195 168.331 591.993 167.269C594.186 164.347 595.106 162.272 602.364 157.414C606.237 154.822 613.949 151.731 619.993 148.615C622.93 147.101 626.839 144.22 627.102 143.999C627.529 143.639 624.262 148.975 618.905 154.781C614.176 159.906 607.743 165.252 601.861 169.438C597.523 172.066 577.859 181.127 576.621 181.619C576.382 181.714 576.481 181.54 576.803 181.191ZM576.803 181.191L580.598 178.726M580.598 178.726L592.444 171.031C592.444 171.031 594.773 169.66 597.512 167.583C601.946 164.22 607.652 159.475 607.766 159.208C607.847 159.019 602.968 163.142 597.077 167.398C589.553 172.833 580.598 178.726 580.598 178.726Z" stroke="#A7B49E"/>
<path d="M549.512 123.779C548.218 120.806 543.186 113.5 541.92 110.929C540.648 107.295 538.808 103.066 535.78 98.9613C532.92 95.0841 525.901 88.5335 525.425 88.0959C524.444 87.195 520.065 84.0784 518.612 83.1958C517.159 82.3131 503.842 73.0799 508.438 77.0174C512.198 80.2384 513.272 82.2247 515.959 87.9925C518.516 93.4841 518.629 95.8689 522.135 100.897C525.641 105.925 533.362 109.851 533.362 109.851C533.362 109.851 537.722 112.499 539.176 113.382C540.629 114.264 549.512 123.779 549.512 123.779ZM549.512 123.779L534.58 104.641C534.58 104.641 523.208 91.937 523.698 92.3874C524.189 92.8378 534.071 103.721 534.071 103.721L549.512 123.779Z" stroke="#A7B49E"/>
<path d="M265.238 71.8709C269.19 69.0599 277.379 62.681 278.522 59.6531" stroke="#A7B49E"/>
<path d="M262.991 73.8683C263.014 71.9669 262.577 66.8269 260.651 61.4779C258.724 56.129 258.597 53.261 258.775 52.4956" stroke="#A7B49E"/>
<path d="M264.327 73.0434C266.495 69.5244 270.543 60.8629 269.386 54.3684" stroke="#A7B49E"/>
<path d="M263.025 74.4743C265.977 72.1371 273.16 67.1824 278.27 66.0611C282.745 64.6048 290.598 60.0376 286.207 53.4196C285.336 52.1066 282.316 50.1008 277.208 52.5824M263.025 74.4743L266.931 70.1805C271.099 66.961 275.519 57.107 277.208 52.5824M263.025 74.4743C263.457 72.8635 262.364 67.878 254.529 60.8214C250.832 58.925 244.792 54.12 250.211 50.0706C255.63 46.0212 259.686 49.6462 261.037 51.9649M277.208 52.5824C277.507 42.8525 271.501 43.6983 268.46 45.3374C263.45 43.2154 261.424 48.8716 261.037 51.9649M261.037 51.9649C260.779 53.8382 260.916 58.3996 263.528 61.6587C266.141 64.9177 264.715 70.5164 263.675 72.9084" stroke="#A7B49E"/>
<path d="M262.75 74.4887C262.343 72.7751 260.854 68.5072 258.157 65.1454" stroke="#A7B49E"/>
<path d="M295.977 158.995C295.977 158.995 263.225 156.867 257.035 113.495C256.11 107.017 262.477 94.3993 262.477 74.9956" stroke="#A7B49E"/>
<path d="M321.165 192.713C323.849 183.719 342.67 177.254 333.977 158.495C327.952 145.495 338.849 141.21 341.997 131.691M341.997 131.691C344.884 129.377 363.452 129.008 360.83 115.778C360.339 113.3 356.158 109.474 351.452 112.508C350.501 116.137 348.48 124.856 341.997 131.691ZM341.997 131.691C341.63 130.875 341.169 131.652 340.452 130.508M340.452 130.508C338.754 127.796 330.783 121.25 327.952 120.508C324.526 119.286 323.385 111.668 327.952 107.508C333.935 102.059 338.069 106.901 339.575 109.236C339.06 111.202 338.116 115.545 338.468 117.189C338.906 119.243 338.367 125.413 340.452 130.508Z" stroke="#A7B49E"/>
<path d="M338.447 116.007C339.482 105.516 343.68 103.21 347.682 105.956C352.004 108.921 350.316 113.193 350.453 116.008" stroke="#A7B49E"/>
<path d="M341.779 131.329C341.163 126.147 339.535 115.728 337.953 115.508" stroke="#A7B49E"/>
<path d="M342.179 131.309C344.115 126.801 347.279 117.529 350.452 116.508" stroke="#A7B49E"/>
<path d="M304.817 40.7802C306.029 39.1408 308.53 35.0252 308.84 31.678C309.228 27.494 314.204 19.5416 314.604 19.7924" stroke="#A7B49E"/>
<path d="M304.872 42.4745C304.983 42.3742 305.111 42.2689 305.253 42.1602M305.253 42.1602C307.271 40.6225 312.323 38.4119 319.314 39.8924C326.799 41.4775 331.324 37.6325 332.651 35.5119C333.13 34.1518 332.977 31.0685 328.533 29.6153C328.312 28.186 326.701 25.5917 322.024 26.649C316.091 30.6829 304.431 39.4327 305.253 42.1602ZM303.724 43.4166C304.499 40.3968 304.533 32.8562 298.475 26.8522C295.868 24.483 292.11 18.6644 297.937 14.343C298.536 13.9801 299.974 13.4046 300.936 14.0065C301.898 14.6083 303.17 14.2979 303.686 14.0675C306.054 14.4425 310.154 16.5653 307.61 22.056C306.928 27.8998 305.344 40.1145 304.471 42.2238" stroke="#A7B49E"/>
<path d="M308.55 18.7708C309.61 16.483 312.23 11.9991 314.231 12.366C315.645 11.5911 318.737 10.8695 319.787 14.1824C322.339 14.8572 326.757 17.6589 324.014 23.4677C323.351 24.5281 321.794 26.8371 320.877 27.5908" stroke="#A7B49E"/>
<path d="M304.568 41.1777C309.332 40.1008 319.625 36.5451 322.688 30.9369" stroke="#A7B49E"/>
<path d="M342.478 317.495C327.533 298.557 361.478 232.495 295.953 159.508C291.896 133.025 327.954 106.509 303.954 43.5093" stroke="#A7B49E"/>
<path d="M319.449 193.386C317.583 192.711 311.395 189.623 310.548 189.102C308.827 188.043 310.511 189.372 305.865 186.723C304.197 185.772 302.001 185.136 300.712 184.815C297.167 183.933 294.898 183.892 287.597 179.099C283.701 176.541 277.853 170.64 272.629 166.286C270.091 164.17 265.915 161.691 265.609 161.535C265.112 161.282 271.298 162.214 278.732 164.888C285.293 167.248 292.723 171.093 298.868 174.881C302.978 177.854 318.98 192.439 319.915 193.387C320.095 193.57 319.896 193.547 319.449 193.386ZM319.449 193.386L315.702 190.85M315.702 190.85L304.001 182.935C304.001 182.935 301.832 181.323 298.853 179.609C294.029 176.834 287.437 173.426 287.147 173.425C286.941 173.424 292.638 176.312 298.851 180.081C306.787 184.896 315.702 190.85 315.702 190.85Z" stroke="#A7B49E"/>
<path d="M336.895 169.554C339.839 168.196 347.035 163.007 349.578 161.685C353.183 160.335 357.371 158.403 361.41 155.287C365.224 152.345 371.621 145.186 372.048 144.7C372.928 143.7 375.949 139.255 376.8 137.783C377.651 136.31 386.594 122.797 382.757 127.478C379.618 131.306 377.655 132.423 371.947 135.234C366.512 137.91 364.13 138.074 359.179 141.688C354.228 145.302 350.47 153.106 350.47 153.106C350.47 153.106 347.917 157.522 347.066 158.995C346.215 160.467 336.895 169.554 336.895 169.554ZM336.895 169.554L355.706 154.211C355.706 154.211 368.16 142.566 367.721 143.067C367.281 143.567 356.614 153.682 356.614 153.682L336.895 169.554Z" stroke="#A7B49E"/>
</svg>
