<svg width="121" height="345" viewBox="0 0 121 345" fill="none" xmlns="http://www.w3.org/2000/svg">
<path d="M34.8562 102.99C34.2768 98.1758 32.5898 87.9335 30.4771 85.4817" stroke="#A7B49E"/>
<path d="M34.4677 103.966C32.6728 103.339 27.6619 102.113 21.9778 102.234C16.2937 102.355 13.535 101.56 12.8662 101.148" stroke="#A7B49E"/>
<path d="M35.4502 104.351C33.3963 100.764 27.7244 93.068 21.4673 90.9788" stroke="#A7B49E"/>
<path d="M36.0843 106.179C35.4432 102.468 34.5259 93.7911 35.9845 88.7667C36.8452 84.14 36.5885 75.0596 28.6766 75.7518C27.1068 75.8891 23.9014 77.5821 23.6384 83.2551M36.0843 106.179L34.1808 100.696C33.3461 95.4951 26.8048 86.9018 23.6384 83.2551M36.0843 106.179C34.8763 105.029 29.9746 103.606 20.031 107.113C16.5975 109.453 9.48926 112.461 8.52383 105.765C7.5584 99.0696 12.6817 97.2403 15.3641 97.1625M23.6384 83.2551C15.2358 78.3402 13.1069 84.0196 13.0928 87.4736C8.8333 90.8597 12.8322 95.3437 15.3641 97.1625M15.3641 97.1625C16.8859 98.285 20.9576 100.346 25.0692 99.6093C29.1808 98.8729 33.416 102.803 35.0197 104.86" stroke="#A7B49E"/>
<path d="M34.9789 104.392C33.2248 104.232 28.7051 104.282 24.6589 105.766" stroke="#A7B49E"/>
<path d="M72.845 200.898C72.845 200.898 75.6919 195.469 59.3805 144.633C57.3325 138.251 50.7759 122.221 36.085 106.179" stroke="#A7B49E"/>
<path d="M81.6939 171.873C83.2092 171.113 85.728 169.166 86.5064 167.215C87.0902 165.751 89.954 161.42 91.5446 159.711C90.0908 159.368 86.3478 159.978 83.0053 165.167" stroke="#A7B49E"/>
<path d="M81.8575 173.742C81.8116 173.452 81.2902 173.182 81.2353 172.855M81.2353 172.855C80.4408 168.109 78.7335 159.768 77.1709 158.143C79.1157 160.484 82.8373 166.499 82.1649 171.832L81.2353 172.855ZM79.9753 163.077L81.6531 171.405L81.2851 167.2" stroke="#A7B49E"/>
<path d="M79.4233 162.184L81.7356 172.34L81.245 166.733" stroke="#A7B49E"/>
<path d="M59.786 35.3629C58.353 33.448 54.9997 29.4724 53.0505 28.8896C50.614 28.1611 44.2676 20.7121 43.5923 18.417M68.3134 241.315C67.8098 231.942 68.7566 208.412 76.5731 189.271C84.3896 170.13 85.8554 145.299 85.6112 135.275M85.6112 135.275C87.5501 132.124 92.1568 125.474 95.0727 124.089C97.9887 122.704 100.247 118.143 101.012 116.036C101.244 115.074 100.963 113.31 97.9818 113.947C96.5352 111.876 92.79 108.845 89.3821 113.287C89.7091 117.025 89.4128 126.656 85.6112 135.275ZM85.6112 135.275C84.9916 134.631 84.0968 133.804 83.0365 132.968M83.0365 132.968C80.5236 130.987 77.0807 128.959 74.1662 129.214C70.5283 129.219 63.8426 127.292 66.2026 119.552C68.5626 111.813 73.5612 113.259 75.7655 114.949C75.9426 116.974 76.518 121.381 77.4023 122.81C78.5077 124.597 79.3564 128.873 83.0365 132.968Z" stroke="#A7B49E"/>
<path d="M76.4002 116.777C76.1549 113.974 76.7865 108.174 81.2749 107.405C85.7633 106.635 88.55 111.006 89.3824 113.287" stroke="#A7B49E"/>
<path d="M85.5706 134.808C84.9367 129.37 83.2839 118.435 81.7441 118.193" stroke="#A7B49E"/>
<path d="M86.0003 134.3C87.5026 129.774 91.1501 120.478 93.722 119.5" stroke="#A7B49E"/>
<path d="M85.4888 133.874C81.1963 130.012 72.423 122.305 71.6694 122.371" stroke="#A7B49E"/>
<path d="M85.9596 133.833C86.5265 131.272 87.8405 126.04 88.5613 125.601" stroke="#A7B49E"/>
<path d="M80.9639 130.974C80.4112 130.081 79.2034 128.209 78.7939 127.868" stroke="#A7B49E"/>
<path d="M59.7457 34.8962C59.7256 32.8577 59.2431 28.066 57.4744 25.2073C55.2636 21.6341 54.446 12.2888 54.9169 12.2476" stroke="#A7B49E"/>
<path d="M60.8098 36.2153C60.8387 36.0678 60.877 35.907 60.9253 35.7344M60.9253 35.7344C61.6098 33.2916 64.311 28.4841 70.7832 25.4552C77.7127 22.2122 79.009 16.4174 78.791 13.9253C78.3543 12.551 76.3754 10.1816 71.9524 11.6986C70.9151 10.6907 68.0664 9.59022 64.9699 13.2512C62.6638 20.0447 58.6264 34.0522 60.9253 35.7344ZM60.4615 37.6584C59.2607 34.7814 54.746 28.7416 46.2938 27.5977C42.7856 27.2769 36.2815 24.8953 38.3302 17.936C38.5897 17.2855 39.3912 15.9598 40.5215 15.861C41.6518 15.7621 42.4805 14.7479 42.7536 14.2531C44.8696 13.1263 49.4208 12.3515 50.6976 18.2665C53.6726 23.3424 59.7658 34.0466 60.3388 36.2566" stroke="#A7B49E"/>
<path d="M49.469 15.078C48.9371 12.6134 48.3277 7.45613 50.1461 6.5437C50.8083 5.07325 52.8412 2.63537 55.6747 4.64749C58.1183 3.64898 63.3329 3.22417 64.6424 9.51301C64.7514 10.759 64.8997 13.5397 64.6211 14.6941" stroke="#A7B49E"/>
<path d="M59.7867 35.3631C62.9405 31.6344 69.015 22.5964 68.0823 16.2746" stroke="#A7B49E"/>
<path d="M113.755 337.628C98.8108 318.69 66.2794 261.457 55.7094 184.034C51.6524 157.551 46.9846 90.8182 60.7691 35.7483" stroke="#A7B49E"/>
<path d="M52.0967 104.782C52.5998 102.862 55.1159 96.42 55.5582 95.5295C56.4571 93.72 55.2862 95.5175 57.5042 90.6509C58.3004 88.9037 58.7352 86.6596 58.9383 85.3462C59.4966 81.736 59.3314 79.4723 63.4453 71.7684C65.6405 67.6575 70.9882 61.299 74.8525 55.7036C76.7304 52.9844 78.8217 48.6017 78.949 48.2826C79.1559 47.7643 78.7878 54.01 76.7968 61.6544C75.0392 68.4028 71.8822 76.1491 68.665 82.6119C66.0761 86.9736 52.9974 104.229 52.1373 105.246C51.9712 105.442 51.9764 105.241 52.0967 104.782ZM52.0967 104.782L54.283 100.82M54.283 100.82L61.1082 88.4522C61.1082 88.4522 62.5175 86.1465 63.9552 83.0239C66.2826 77.9689 69.0808 71.0956 69.0555 70.8068C69.0376 70.6016 66.6765 76.5365 63.4843 83.0651C59.407 91.404 54.283 100.82 54.283 100.82Z" stroke="#A7B49E"/>
<path d="M55.7088 184.035C54.2716 181.129 48.8906 174.076 47.5002 171.569C46.0531 168.002 44.0097 163.868 40.7858 159.915C37.741 156.181 30.412 149.98 29.9148 149.566C28.8911 148.714 24.3664 145.813 22.8718 145.003C21.3772 144.192 7.62735 135.617 12.4096 139.326C16.3218 142.361 17.4913 144.292 20.4549 149.923C23.2765 155.283 23.5051 157.66 27.2512 162.511C30.9974 167.363 38.9005 170.909 38.9005 170.909C38.9005 170.909 43.3843 173.342 44.8789 174.153C46.3735 174.964 55.7088 184.035 55.7088 184.035ZM55.7088 184.035L39.8635 165.646C39.8635 165.646 27.8871 153.51 28.3989 153.936C28.9107 154.362 39.3108 164.752 39.3108 164.752L55.7088 184.035Z" stroke="#A7B49E"/>
</svg>
