<svg width="665" height="770" viewBox="0 0 665 770" fill="none" xmlns="http://www.w3.org/2000/svg">
<path d="M665 287.036H160.792V435.827C188.691 432.43 257.096 440.615 257.096 504.617C257.096 588.694 257.096 703.853 257.096 764.49H322.5M499 764.49H567M25.1599 23.5948C31.7146 1.68335 105.833 -3.92197 117.934 23.5948V130.092L129.531 447.291L141.128 764.49H6L25.1599 130.092V23.5948Z" stroke="#C78764" stroke-width="10"/>
<path d="M562.001 765.5V622.336V497.823C562.001 485.372 566.084 431.416 660.001 422.378L660.001 282M504 765.5C504 748.899 506.482 535.14 504.836 497.823C502.745 450.433 468.088 422.378 410.919 422.378C353.75 422.378 317.004 443.867 317.002 497.823C317 551.778 317.5 765.5 317.5 765.5" stroke="#C78764" stroke-width="10"/>
</svg>
