<svg width="662" height="765" viewBox="0 0 662 765" fill="none" xmlns="http://www.w3.org/2000/svg">
<path d="M662 285.036H157.792V433.827C185.691 430.43 254.096 438.615 254.096 502.617C254.096 586.694 254.096 701.853 254.096 762.49H319.5M496 762.49H564M22.1599 21.5948C28.7146 -0.316647 102.833 -5.92197 114.934 21.5948V128.092L126.531 445.291L138.128 762.49H3L22.1599 128.092V21.5948Z" stroke="#C78764" stroke-width="5"/>
<path d="M559.001 763.5V620.336V495.823C559.001 483.372 563.084 429.416 657.001 420.378L657.001 280M501 763.5C501 746.899 503.482 533.14 501.836 495.823C499.745 448.433 465.088 420.378 407.919 420.378C350.75 420.378 314.004 441.867 314.002 495.823C314 549.778 314.5 763.5 314.5 763.5" stroke="#C78764" stroke-width="5"/>
</svg>
