<svg width="279" height="361" viewBox="0 0 279 361" fill="none" xmlns="http://www.w3.org/2000/svg">
<path d="M166.889 103.645C169.33 99.0881 174.131 89.1189 173.801 85.6938" stroke="#807E65"/>
<path d="M165.956 104.26C164.786 102.621 161.197 98.5056 156.203 95.1564C151.208 91.8073 149.306 89.4369 148.979 88.6704" stroke="#807E65"/>
<path d="M166.571 105.193C166.986 100.813 166.781 90.645 162.641 85.0178" stroke="#807E65"/>
<path d="M176.561 91.9095C172.227 95.4105 167.717 103.545 166.003 107.175C165.661 105.437 162.287 101.215 151.536 98.2341C147.133 98.1914 139.141 96.4976 142.398 90.064C145.655 83.6304 151.208 85.1467 153.578 86.709C152.498 83.582 151.777 77.236 157.534 76.8679C159.658 73.8603 164.973 70.1947 169.242 79.5933C172.938 74.7991 176.747 75.2689 178.19 76.103C185.463 80.307 180.134 88.3924 176.561 91.9095Z" fill="#807E65"/>
<path d="M166.003 107.175C167.717 103.545 172.227 95.4105 176.561 91.9095C180.134 88.3924 185.463 80.307 178.19 76.103C176.747 75.2689 172.938 74.7991 169.242 79.5933M166.003 107.175L167.707 101.23C170.164 96.1815 169.754 84.702 169.242 79.5933M166.003 107.175C165.661 105.437 162.287 101.215 151.536 98.2341C147.133 98.1914 139.141 96.4976 142.398 90.064C145.655 83.6304 151.208 85.1467 153.578 86.709M169.242 79.5933C164.973 70.1947 159.658 73.8603 157.534 76.8679C151.777 77.236 152.498 83.582 153.578 86.709M153.578 86.709C154.209 88.614 156.474 92.8881 160.484 94.7439C164.493 96.5996 165.757 102.605 165.888 105.376" stroke="#807E65"/>
<path d="M166.138 104.943C164.718 103.737 160.775 101.034 156.365 99.8707" stroke="#807E65"/>
<path d="M139.926 212.227C139.926 212.227 145.709 209.217 162.664 154.912C164.792 148.094 168.915 130.112 166.003 107.175" stroke="#807E65"/>
<path d="M165.329 192.261C167.106 192.518 170.477 192.348 172.343 191.117C173.743 190.194 178.87 188.153 181.291 187.627C180.243 186.444 176.63 184.701 170.564 187.201" stroke="#807E65"/>
<path d="M169.832 177.896C169.824 177.766 169.816 177.641 169.807 177.523C169.824 177.634 169.832 177.759 169.832 177.896C170.021 181.297 169.463 188.419 165.762 192.511L164.332 192.839C166.441 188.43 169.828 180.666 169.832 177.896Z" fill="#807E65"/>
<path d="M164.329 193.992C164.466 193.711 164.18 193.159 164.332 192.839M164.332 192.839C166.545 188.213 170.166 179.891 169.807 177.523C170.059 180.749 169.604 188.263 165.762 192.511L164.332 192.839ZM169.218 183.536L165.58 191.828L167.832 187.932" stroke="#807E65"/>
<path d="M169.286 182.419L165.08 192.693L168.082 187.499" stroke="#807E65"/>
<path d="M206.119 158.665C202.748 158.102 194.696 161.109 191.091 162.683C190.948 161.743 190.68 160.477 190.273 159.103C189.308 155.846 187.567 151.983 184.888 150.434C181.736 148.227 177.126 142.482 183.9 137.157C190.675 131.833 194.118 136.133 194.993 138.949C193.908 140.825 191.713 145.023 191.604 146.809C191.469 149.041 189.59 153.291 190.273 159.103C190.68 160.477 190.948 161.743 191.091 162.683C199.651 157.466 205.794 149.236 207.796 145.773C213.461 143.966 214.851 148.889 214.837 151.576C217.808 152.832 216.972 154.543 216.183 155.242C214.233 156.617 209.49 159.227 206.119 158.665Z" fill="#807E65"/>
<path d="M229.809 59.7403C229.739 57.1973 229.267 51.6877 227.935 49.9941C226.272 47.8772 225.331 37.5154 226.149 35.1008M111.297 244.768C116.59 236.277 131.794 216.305 150.261 204.341C168.727 192.377 185.175 171.584 191.091 162.683M191.091 162.683C194.696 161.109 202.748 158.102 206.119 158.665C209.49 159.227 214.233 156.617 216.183 155.242C216.972 154.543 217.808 152.832 214.837 151.576C214.851 148.889 213.461 143.966 207.796 145.773C205.794 149.236 199.651 157.466 191.091 162.683ZM191.091 162.683C190.948 161.743 190.68 160.477 190.273 159.103M190.273 159.103C189.308 155.846 187.567 151.983 184.888 150.434C181.736 148.227 177.126 142.482 183.9 137.157C190.675 131.833 194.118 136.133 194.993 138.949C193.908 140.825 191.713 145.023 191.604 146.809C191.469 149.041 189.59 153.291 190.273 159.103Z" stroke="#807E65"/>
<path d="M194.425 140.931C195.926 138.334 200.018 133.653 204.374 135.709C208.73 137.765 208.471 143.275 207.797 145.773" stroke="#807E65"/>
<path d="M191.341 162.25C194.116 157.116 199.371 146.562 198.186 145.415" stroke="#807E65"/>
<path d="M192.024 162.067C196.091 159.028 204.931 153.127 207.756 153.836" stroke="#807E65"/>
<path d="M191.842 161.384C190.487 155.403 187.603 143.341 186.911 142.94" stroke="#807E65"/>
<path d="M192.274 161.635C194.33 159.743 198.666 155.973 199.558 156.027" stroke="#807E65"/>
<path d="M189.698 156.102C189.765 154.986 189.864 152.617 189.718 152.071" stroke="#807E65"/>
<path d="M230.059 59.3074C231.288 57.515 233.799 53.0374 234.016 49.4663C234.286 45.0023 239.291 36.3448 239.724 36.5951" stroke="#807E65"/>
<path d="M259.366 52.5701C258.031 54.8788 253.367 59.1512 245.386 57.7717C237.931 56.4832 232.654 59.0397 230.569 60.7568C229.607 57.8906 241.664 48.1125 247.813 43.5817C252.732 42.2667 254.525 44.959 254.807 46.4695C259.563 47.8329 259.828 51.1046 259.366 52.5701Z" fill="#807E65"/>
<path d="M230.175 61.1065C230.29 60.9952 230.421 60.8781 230.569 60.7568M230.569 60.7568C232.654 59.0397 237.931 56.4832 245.386 57.7717C253.367 59.1512 258.031 54.8788 259.366 52.5701C259.828 51.1046 259.563 47.8329 254.807 46.4695C254.525 44.959 252.732 42.2667 247.813 43.5817C241.664 48.1125 229.607 57.8906 230.569 60.7568ZM228.991 62.1549C229.71 58.9129 229.494 50.8949 222.876 44.7592C220.036 42.347 215.861 36.3145 221.888 31.4824C222.511 31.0721 224.015 30.4016 225.054 31.0022C226.093 31.6027 227.43 31.2208 227.969 30.9547C230.489 31.2568 234.903 33.3461 232.392 39.2873C231.865 45.5278 230.597 58.5782 229.742 60.8563" stroke="#807E65"/>
<path d="M233.278 35.7567C234.324 33.2812 236.95 28.4073 239.081 28.7156C240.554 27.8341 243.804 26.9407 245.027 30.4198C247.752 31.033 252.526 33.8312 249.815 40.1186C249.148 41.273 247.577 43.7913 246.63 44.63" stroke="#807E65"/>
<path d="M229.809 59.7405C234.819 58.4012 245.602 54.2007 248.659 48.1134" stroke="#807E65"/>
<path d="M91.7602 356.489C90.4 330.868 97.2238 261.12 135.401 187.087C148.077 161.496 184.829 100.385 230.425 60.6738" stroke="#807E65"/>
<path d="M208.614 106.396C203.706 108.632 181.837 115.751 180.471 116.116C180.207 116.187 180.334 116.015 180.719 115.687C182.328 114.316 188.444 110.219 189.371 109.711C191.255 108.677 189.143 109.535 194.038 106.633C195.795 105.591 197.543 103.896 198.522 102.873C201.212 100.059 202.453 97.9822 210.723 93.755C215.137 91.4994 223.653 89.197 230.418 86.6594C233.706 85.4262 238.196 82.87 238.501 82.6688C238.997 82.3419 234.86 87.5721 228.464 93.0375C222.817 97.8622 215.349 102.708 208.614 106.396Z" fill="#807E65"/>
<path d="M180.719 115.687C182.328 114.316 188.444 110.219 189.371 109.711C191.255 108.677 189.143 109.535 194.038 106.633C195.795 105.591 197.543 103.896 198.522 102.873C201.212 100.059 202.453 97.9822 210.723 93.755C215.137 91.4994 223.653 89.197 230.418 86.6594C233.706 85.4262 238.196 82.87 238.501 82.6688C238.997 82.3419 234.86 87.5721 228.464 93.0375C222.817 97.8622 215.349 102.708 208.614 106.396C203.706 108.632 181.837 115.751 180.471 116.116C180.207 116.187 180.334 116.015 180.719 115.687ZM180.719 115.687L185.033 113.556M185.033 113.556L198.502 106.904C198.502 106.904 201.131 105.747 204.285 103.894C209.389 100.894 216.013 96.5925 216.168 96.3249C216.278 96.1348 210.606 99.8825 203.852 103.643C195.225 108.447 185.033 113.556 185.033 113.556Z" stroke="#807E65"/>
<path d="M135.914 171.214C135.585 174.247 135.932 183.676 135.4 187.088C135.4 187.088 132.864 173.493 132.066 171.876L128.873 165.411C128.873 165.411 124.199 157.511 123.922 150.998C123.645 144.484 124.899 142.27 125.734 135.874C126.61 129.156 126.778 126.759 125.247 121.732C123.374 115.586 130.035 131.43 130.833 133.047C131.632 134.663 133.776 139.945 134.141 141.312C134.318 141.975 136.872 151.845 137.226 156.956C137.6 162.367 136.842 167.219 135.914 171.214Z" fill="#807E65"/>
<path d="M135.4 187.088C135.932 183.676 135.585 174.247 135.914 171.214C136.842 167.219 137.6 162.367 137.226 156.956C136.872 151.845 134.318 141.975 134.141 141.312C133.776 139.945 131.632 134.663 130.833 133.047C130.035 131.43 123.374 115.586 125.247 121.732C126.778 126.759 126.61 129.156 125.734 135.874C124.899 142.27 123.645 144.484 123.922 150.998C124.199 157.511 128.873 165.411 128.873 165.411C128.873 165.411 131.267 170.26 132.066 171.876C132.864 173.493 135.4 187.088 135.4 187.088ZM135.4 187.088L132.924 161.4C132.924 161.4 129.975 143.524 130.157 144.207C130.34 144.89 132.992 160.284 132.992 160.284L135.4 187.088Z" stroke="#807E65"/>
<path d="M0 114.922C0 110.82 0.449219 106.699 1.34766 102.559C2.28516 98.3789 3.76953 94.2969 5.80078 90.3125C7.87109 86.2891 10.3516 82.7344 13.2422 79.6484C16.1719 76.5625 19.8242 74.082 24.1992 72.207C28.5742 70.293 33.3789 69.3359 38.6133 69.3359C46.5039 69.3359 53.0273 71.0156 58.1836 74.375C63.3789 77.7344 65.9766 81.6992 65.9766 86.2695C65.9766 88.7305 65.1953 90.8203 63.6328 92.5391C62.0703 94.2578 59.9219 95.1172 57.1875 95.1172C54.6484 95.1172 52.5781 94.3359 50.9766 92.7734C49.375 91.1719 48.5742 89.1602 48.5742 86.7383C48.5742 84.082 49.4141 82.0117 51.0938 80.5273C52.7734 79.0039 54.9219 78.2422 57.5391 78.2422V78.0078C56.6797 76.9922 54.8438 75.8789 52.0312 74.668C49.2578 73.457 45.957 72.8516 42.1289 72.8516C36.6211 72.8516 31.8555 74.5703 27.832 78.0078C23.8086 81.4062 20.7617 86.1133 18.6914 92.1289C16.6211 98.1445 15.5859 105.098 15.5859 112.988C15.5859 115.684 15.6641 118.281 15.8203 120.781C16.0156 123.281 16.3672 125.918 16.875 128.691C17.3828 131.465 18.0273 134.023 18.8086 136.367C19.6289 138.711 20.7031 140.977 22.0312 143.164C23.3594 145.312 24.9023 147.148 26.6602 148.672C28.418 150.195 30.5469 151.406 33.0469 152.305C35.5469 153.203 38.3008 153.652 41.3086 153.652C44.707 153.652 48.3398 153.066 52.207 151.895V119.961L43.5352 119.316V116.68H74.2383V119.316L65.625 119.961V151.016C62.3438 152.93 58.2227 154.414 53.2617 155.469C48.3008 156.523 43.2422 157.051 38.0859 157.051C12.6953 157.051 0 143.008 0 114.922Z" fill="#807E65"/>
<path d="M207.535 313V310.363L216.559 309.777V232.609L207.535 232.023V229.387H262.906L263.492 253.234H260.211C259.938 249.953 259.469 247.16 258.805 244.855C258.141 242.512 257.125 240.383 255.758 238.469C254.43 236.516 252.594 235.051 250.25 234.074C247.906 233.098 245.055 232.609 241.695 232.609C237.203 232.609 233.824 232.805 231.559 233.195V269.289C232.535 269.328 233.102 269.348 233.258 269.348C236.031 269.348 238.219 269.211 239.82 268.938C241.422 268.625 242.867 268 244.156 267.062C245.445 266.086 246.344 264.66 246.852 262.785C247.359 260.91 247.613 258.41 247.613 255.285H250.836V286.75H247.613C247.613 281.398 246.734 277.688 244.977 275.617C243.219 273.547 240.289 272.512 236.188 272.512L231.559 272.57V309.777L242.926 310.363V313H207.535Z" fill="#807E65"/>
</svg>
